<?xml version="1.0" encoding="UTF-8"?>
<svg id="Layer_1" xmlns="http://www.w3.org/2000/svg" baseProfile="tiny" version="1.2" viewBox="0 0 327.5306122 327.5306122">
  <!-- Generator: Adobe Illustrator 29.8.3, SVG Export Plug-In . SVG Version: 2.1.1 Build 3)  -->
  <rect width="327.5306122" height="327.5306122" fill="#4dd5d5"/>
  <path d="M245.9877225,185.1703121h-84.2609835l24.2929911,24.1230997c-7.9844028,4.4169039-16.988102,6.9651192-26.8412064,6.9651192-30.2388138,0-54.7016898-24.6327479-54.7016898-54.8715618s24.6327415-54.7016898,54.8715682-54.7016898,46.5474021,17.3278654,52.8329947,40.60156h35.8448927c-6.7952408-42.6401335-43.8293084-75.597054-88.6778874-75.597054s-90.0369407,40.2617966-90.0369407,89.8670623,40.2617966,90.0369537,89.8670623,90.0369537c26.3384843,0,37.5437029-6.2855926,52.153481-16.8182106l20.7254793,20.7254793,24.8026393-24.8026393-21.4050189-21.5748844c4.5867824-7.3048891,8.8338079-14.7796436,10.5326181-23.9532342Z" fill="#fff"/>
</svg>