<?xml version="1.0" encoding="utf-8"?>
<!-- Generator: Adobe Illustrator 16.0.3, SVG Export Plug-In . SVG Version: 6.00 Build 0)  -->
<!DOCTYPE svg PUBLIC "-//W3C//DTD SVG 1.1//EN" "http://www.w3.org/Graphics/SVG/1.1/DTD/svg11.dtd">
<svg version="1.1" id="Layer_1" xmlns="http://www.w3.org/2000/svg" xmlns:xlink="http://www.w3.org/1999/xlink" x="0px" y="0px"
	 width="100.471px" height="66.573px" viewBox="0 0 100.471 66.573" enable-background="new 0 0 100.471 66.573"
	 xml:space="preserve">
<g>
	<path fill-rule="evenodd" clip-rule="evenodd" fill="#FFFFFF" d="M26.779,31.155c-0.222-0.154-0.434-0.303-0.646-0.456
		c0.161-0.312,0.346-0.603,0.471-0.916c0.726-1.854,0.439-3.559-0.906-5.014c-0.521-0.564-1.206-0.987-1.83-1.454
		c-0.923-0.688-1.862-1.358-2.795-2.036c-0.924-0.667-1.849-1.329-2.768-1.998c-0.734-0.534-1.488-1.047-2.112-1.722
		c-1.104-1.199-1.838-2.59-2.134-4.191c-0.121-0.657-0.194-1.333-0.176-1.999c0.055-1.825,0.675-3.468,1.76-4.942
		c1.298-1.771,2.583-3.555,3.872-5.334c0.227-0.319,0.462-0.636,0.689-0.955c0.102-0.143,0.204-0.194,0.355-0.062
		c0.144,0.123,0.305,0.227,0.412,0.307c-0.133,0.402-0.309,0.77-0.379,1.155c-0.193,1.104,0.204,1.999,1.097,2.66
		c1.256,0.935,2.531,1.853,3.802,2.775c1.215,0.882,2.445,1.753,3.65,2.646c0.859,0.63,1.742,1.238,2.532,1.943
		c1.415,1.25,2.246,2.857,2.588,4.702c0.397,2.174,0.023,4.23-1.15,6.109c-0.495,0.797-1.082,1.539-1.631,2.301
		c-0.703,0.971-1.41,1.936-2.112,2.907c-0.836,1.151-1.663,2.306-2.496,3.461C26.844,31.077,26.816,31.109,26.779,31.155z"/>
	<path fill-rule="evenodd" clip-rule="evenodd" fill="#FFFFFF" d="M20.462,39.692c-0.287-0.208-0.563-0.401-0.813-0.582
		c0.083-0.272,0.194-0.518,0.216-0.771c0.06-0.61-0.208-1.081-0.703-1.442c-1.7-1.229-3.396-2.461-5.097-3.698
		c-0.485-0.357-0.989-0.703-1.432-1.108c-0.869-0.794-1.447-1.767-1.71-2.931c-0.12-0.518-0.18-1.028-0.17-1.553
		c0.018-1.206,0.392-2.296,1.081-3.274c0.716-1.019,1.465-2.017,2.196-3.026c0.341-0.462,0.674-0.929,1.021-1.414
		c0.282,0.203,0.559,0.402,0.827,0.594c-0.069,0.224-0.162,0.43-0.204,0.646c-0.111,0.641,0.13,1.144,0.643,1.521
		c1.169,0.859,2.348,1.709,3.526,2.562c0.85,0.624,1.727,1.223,2.564,1.871c1.64,1.273,2.425,2.96,2.356,5.042
		c-0.046,1.271-0.513,2.38-1.262,3.393c-0.721,0.969-1.423,1.958-2.134,2.938C21.072,38.865,20.776,39.271,20.462,39.692z"/>
	<path fill-rule="evenodd" clip-rule="evenodd" fill="#FFFFFF" d="M23.96,58.08c0.245,0.115,0.495,0.226,0.735,0.351
		c1.063,0.531,1.784,1.341,1.964,2.542c0.185,1.229,0.009,2.379-0.869,3.331c-0.601,0.656-1.377,1.022-2.223,1.249
		c-0.729,0.188-1.47,0.276-2.227,0.276c-2.325-0.005-4.648-0.005-6.974,0.006c-0.227,0-0.282-0.066-0.282-0.288
		c0.005-4.728,0.005-9.459,0.005-14.186c0-0.074-0.024-0.157,0.004-0.218c0.028-0.065,0.093-0.144,0.157-0.153
		c0.139-0.021,0.287-0.009,0.434-0.009c2.089,0,4.183,0,6.271,0c0.837,0,1.665,0.088,2.445,0.393
		c1.271,0.495,2.177,1.341,2.422,2.731c0.208,1.184,0.004,2.287-0.878,3.176C24.652,57.571,24.301,57.807,23.96,58.08z
		 M17.255,59.674c0,0.102,0,0.176,0,0.245c0,0.938,0,1.872,0,2.805c0,0.301-0.074,0.305,0.305,0.305
		c1.155,0.006,2.31,0.015,3.46-0.009c0.448-0.01,0.901-0.065,1.336-0.167c0.684-0.161,1.1-0.66,1.154-1.293
		c0.069-0.782-0.208-1.337-0.924-1.608c-0.415-0.161-0.887-0.245-1.336-0.264c-1.071-0.037-2.148-0.014-3.221-0.014
		C17.786,59.674,17.541,59.674,17.255,59.674z M17.26,56.979c1.238,0,2.448,0.015,3.66-0.009c0.402-0.009,0.781-0.143,1.137-0.352
		c0.845-0.489,0.859-2.006-0.042-2.49c-0.411-0.223-0.85-0.319-1.303-0.324c-1.119-0.013-2.237-0.004-3.351-0.004
		c-0.033,0-0.07,0.009-0.102,0.013C17.26,54.877,17.26,55.927,17.26,56.979z"/>
	<path fill-rule="evenodd" clip-rule="evenodd" fill="#FFFFFF" d="M38.036,58.071c0.102,0.046,0.171,0.078,0.241,0.105
		c0.776,0.338,1.498,0.757,1.987,1.483c0.341,0.508,0.512,1.077,0.545,1.687c0.037,0.646,0.005,1.285-0.24,1.895
		c-0.384,0.952-1.091,1.589-2.01,1.997c-0.971,0.429-1.997,0.586-3.051,0.586c-2.348,0.005-4.69,0-7.038,0.011
		c-0.194,0-0.268-0.048-0.268-0.26c0.009-4.792,0.009-9.59,0.004-14.386c0-0.17,0.06-0.208,0.213-0.208
		c2.356,0,4.708-0.018,7.06,0.009c1.073,0.015,2.104,0.26,3,0.888c0.957,0.675,1.465,1.59,1.506,2.772
		c0.047,1.193-0.323,2.195-1.275,2.948C38.507,57.757,38.286,57.895,38.036,58.071z M33.521,59.678c0-0.004,0-0.004,0-0.004
		c-0.637,0-1.271,0.009-1.908-0.005c-0.227-0.004-0.282,0.075-0.278,0.291c0.009,0.92,0.005,1.84,0.005,2.759
		c0,0.306,0.004,0.31,0.3,0.31c1.197,0,2.399,0.009,3.595-0.004c0.499-0.005,1.004-0.046,1.475-0.249
		c0.615-0.265,0.905-0.744,0.924-1.392c0.014-0.662-0.282-1.146-0.888-1.428c-0.434-0.204-0.896-0.269-1.363-0.278
		C34.765,59.669,34.141,59.678,33.521,59.678z M33.248,53.801L33.248,53.801c-0.554,0-1.109,0.009-1.663-0.005
		c-0.199-0.004-0.25,0.064-0.25,0.25c0.009,0.888,0.005,1.77,0.005,2.651c0,0.305,0,0.315,0.309,0.315
		c1.096-0.005,2.19,0.014,3.285-0.036c0.384-0.021,0.787-0.158,1.147-0.32c0.521-0.24,0.721-0.721,0.721-1.274
		c0-0.551-0.223-0.989-0.717-1.268c-0.393-0.221-0.822-0.301-1.261-0.313C34.298,53.787,33.775,53.801,33.248,53.801z"/>
	<path fill-rule="evenodd" clip-rule="evenodd" fill="#FFFFFF" d="M9.82,58.066c0.259,0.119,0.476,0.212,0.689,0.318
		c0.915,0.457,1.654,1.094,1.931,2.117c0.324,1.178,0.254,2.333-0.426,3.387c-0.526,0.813-1.33,1.266-2.226,1.562
		c-0.897,0.296-1.822,0.385-2.755,0.379c-2.255-0.005-4.501-0.005-6.756,0.006C0.046,65.835,0,65.756,0,65.544
		C0.009,60.773,0.009,56,0,51.231c0-0.186,0.046-0.254,0.245-0.254c2.302,0.009,4.603-0.005,6.904,0.009
		c1.04,0.01,2.047,0.213,2.943,0.781c1.082,0.684,1.655,1.663,1.687,2.962c0.032,1.4-0.551,2.44-1.724,3.179
		C9.991,57.95,9.925,57.996,9.82,58.066z M5.31,59.678L5.31,59.678c-0.652,0-1.299,0-1.951-0.004c-0.161,0-0.235,0.032-0.231,0.218
		c0.009,0.983,0.004,1.969,0.004,2.957c-0.004,0.13,0.033,0.18,0.167,0.18c1.243-0.004,2.486,0.018,3.725-0.009
		c0.462-0.015,0.928-0.093,1.376-0.213c0.619-0.166,0.971-0.67,1.008-1.381c0.037-0.606-0.198-1.133-0.795-1.433
		c-0.443-0.222-0.915-0.296-1.396-0.311C6.581,59.665,5.943,59.678,5.31,59.678z M3.142,57.017c0.961,0,1.895,0.01,2.829-0.004
		c0.563-0.005,1.127-0.019,1.658-0.231c0.616-0.24,0.966-0.721,0.957-1.378c-0.009-0.613-0.212-1.112-0.905-1.372
		c-0.353-0.129-0.735-0.212-1.11-0.222c-1.063-0.027-2.125-0.005-3.193-0.018c-0.189,0-0.253,0.056-0.25,0.249
		c0.009,0.934,0.004,1.866,0.004,2.801C3.133,56.9,3.142,56.956,3.142,57.017z"/>
	<path fill-rule="evenodd" clip-rule="evenodd" fill="#FFFFFF" d="M6.849,44.227c0.25-0.813,0.49-1.599,0.729-2.389
		c0-0.015,0.01-0.029,0.01-0.043c0.185-0.578,0.185-0.578,0.786-0.541c0.157,0.01,0.304,0.015,0.461,0.015
		c7.939,0,15.874,0.004,23.813-0.005c0.236,0,0.365,0.047,0.434,0.296c0.25,0.883,0.523,1.757,0.794,2.661
		c-0.092,0.01-0.171,0.015-0.245,0.015c-2.084,0.004-4.168,0.004-6.248-0.005c-0.184,0-0.249,0.064-0.3,0.231
		c-0.369,1.225-0.753,2.447-1.118,3.678c-0.06,0.199-0.153,0.269-0.366,0.269c-3.494-0.009-6.986-0.009-10.479,0
		c-0.213,0-0.291-0.074-0.348-0.265c-0.374-1.243-0.761-2.48-1.141-3.724c-0.037-0.135-0.092-0.189-0.254-0.185
		c-2.13,0.004-4.256,0.004-6.381,0C6.959,44.235,6.922,44.23,6.849,44.227z"/>
</g>
<path fill="#FFFFFF" d="M42.786,66.573c-0.692,0-1.261-0.563-1.261-1.262c0-0.697,0.569-1.262,1.261-1.262
	c0.699,0,1.263,0.564,1.263,1.262C44.048,66.01,43.484,66.573,42.786,66.573z M42.786,64.185c-0.618,0-1.123,0.508-1.123,1.127
	s0.504,1.123,1.123,1.123c0.624,0,1.128-0.504,1.128-1.123S43.41,64.185,42.786,64.185z"/>
<g>
	<path fill="#FFFFFF" d="M42.444,64.748c0.074-0.019,0.184-0.028,0.291-0.028c0.158,0,0.263,0.032,0.338,0.097
		c0.06,0.052,0.092,0.135,0.092,0.222c0,0.157-0.097,0.259-0.222,0.301v0.005c0.093,0.032,0.143,0.115,0.172,0.236
		c0.041,0.16,0.068,0.276,0.091,0.318h-0.157c-0.019-0.032-0.046-0.134-0.078-0.276c-0.032-0.163-0.097-0.223-0.236-0.228h-0.138
		v0.504h-0.152V64.748z M42.597,65.278h0.152c0.162,0,0.263-0.087,0.263-0.221c0-0.153-0.111-0.218-0.268-0.222
		c-0.074,0-0.125,0.008-0.148,0.019V65.278z"/>
</g>
<line stroke="#FFFFFF" stroke-miterlimit="10" x1="52.35" y1="0.215" x2="52.35" y2="66.215"/>
<g>
	<path fill="#FFFFFF" d="M73.245,22.51h5.643l11.241,29.23h-5.781l-2.288-6.021H70.132l-2.378,6.021h-5.781L73.245,22.51z
		 M76.1,30.26l-3.921,10.033h7.819L76.1,30.26z"/>
</g>
<g>
	<path fill="#FFFFFF" d="M92.139,27.053v-5.008h3.338v5.008h4.994v3.337h-4.994v4.993h-3.338V30.39h-4.994v-3.337H92.139z"/>
</g>
<g>
</g>
<g>
</g>
<g>
</g>
<g>
</g>
<g>
</g>
<g>
</g>
</svg>
