<?xml version="1.0" encoding="utf-8"?>
<!-- Generator: Adobe Illustrator 16.0.3, SVG Export Plug-In . SVG Version: 6.00 Build 0)  -->
<!DOCTYPE svg PUBLIC "-//W3C//DTD SVG 1.1//EN" "http://www.w3.org/Graphics/SVG/1.1/DTD/svg11.dtd">
<svg version="1.1" id="Layer_1" xmlns="http://www.w3.org/2000/svg" xmlns:xlink="http://www.w3.org/1999/xlink" x="0px" y="0px"
	 width="242.794px" height="29.015px" viewBox="0 0 242.794 29.015" enable-background="new 0 0 242.794 29.015"
	 xml:space="preserve">
<path fill="#485870" d="M10.699,8.916c3.593,0,6.517,2.922,6.517,6.515c0,3.595-2.924,6.519-6.517,6.519s-6.517-2.923-6.517-6.519
	C4.182,11.838,7.106,8.916,10.699,8.916 M10.699,4.734C4.79,4.734,0,9.524,0,15.431c0,5.911,4.79,10.7,10.699,10.7
	c5.909,0,10.699-4.789,10.699-10.7C21.398,9.524,16.608,4.734,10.699,4.734L10.699,4.734z"/>
<path fill="#485870" d="M36.996,17.37c-0.828,2.65-3.305,4.581-6.223,4.581c-3.594,0-6.516-2.924-6.516-6.518
	c0-3.591,2.922-6.517,6.516-6.517c2.806,0,5.202,1.78,6.12,4.273h4.341c-1.033-4.833-5.323-8.454-10.461-8.454
	c-5.91,0-10.699,4.788-10.699,10.699c0,5.908,4.79,10.699,10.699,10.699c5.248,0,9.608-3.777,10.52-8.761h-4.297V17.37z"/>
<path fill="#677A91" d="M71.091,17.37c-0.827,2.65-3.305,4.581-6.223,4.581c-3.594,0-6.516-2.924-6.516-6.518
	c0-3.591,2.922-6.517,6.516-6.517c2.806,0,5.201,1.78,6.12,4.273h4.342c-1.032-4.833-5.323-8.454-10.461-8.454
	c-5.909,0-10.7,4.788-10.7,10.699c0,5.908,4.791,10.699,10.7,10.699c5.248,0,9.608-3.777,10.521-8.761h-4.297V17.37z"/>
<path fill="#485870" d="M10.316,18.492l8.599,8.412l3.144-2.804l-5.601-5.584"/>
<g>
	<path fill="#677A91" d="M76.756,15.396c0.234-3.878,3.703-5.044,7.086-5.044c3.003,0,6.618,0.67,6.618,4.287v7.844
		c0,1.37,0.146,2.74,0.525,3.353h-4.199c-0.145-0.467-0.262-0.962-0.291-1.457c-1.312,1.369-3.236,1.865-5.074,1.865
		c-2.858,0-5.132-1.43-5.132-4.52c0-3.411,2.566-4.228,5.132-4.578c2.537-0.379,4.898-0.292,4.898-1.982
		c0-1.779-1.225-2.042-2.683-2.042c-1.574,0-2.595,0.642-2.741,2.274H76.756z M86.32,18.458c-0.7,0.612-2.158,0.642-3.441,0.875
		c-1.282,0.262-2.449,0.7-2.449,2.215c0,1.545,1.196,1.925,2.537,1.925c3.237,0,3.354-2.566,3.354-3.471V18.458z"/>
	<path fill="#677A91" d="M93.085,10.76h3.937v2.799h0.059c0.758-1.895,2.799-3.207,4.811-3.207c0.292,0,0.642,0.058,0.904,0.146
		v3.849c-0.378-0.088-0.991-0.146-1.487-0.146c-3.032,0-4.083,2.187-4.083,4.84v6.794h-4.141V10.76z"/>
	<path fill="#677A91" d="M106.733,19.304c0.117,2.624,1.399,3.82,3.703,3.82c1.662,0,3.003-1.021,3.265-1.954h3.645
		c-1.167,3.558-3.645,5.073-7.056,5.073c-4.753,0-7.698-3.266-7.698-7.931c0-4.52,3.12-7.96,7.698-7.96
		c5.131,0,7.61,4.315,7.318,8.952H106.733z M113.468,16.679c-0.379-2.099-1.283-3.207-3.294-3.207c-2.625,0-3.383,2.041-3.441,3.207
		H113.468z"/>
	<path fill="#677A91" d="M122.888,19.304c0.117,2.624,1.399,3.82,3.703,3.82c1.662,0,3.003-1.021,3.266-1.954h3.645
		c-1.167,3.558-3.645,5.073-7.056,5.073c-4.753,0-7.698-3.266-7.698-7.931c0-4.52,3.12-7.96,7.698-7.96
		c5.132,0,7.61,4.315,7.318,8.952H122.888z M129.623,16.679c-0.379-2.099-1.283-3.207-3.295-3.207c-2.625,0-3.382,2.041-3.44,3.207
		H129.623z"/>
	<path fill="#677A91" d="M135.631,10.76h3.937v2.799h0.058c0.758-1.895,2.799-3.207,4.811-3.207c0.292,0,0.642,0.058,0.904,0.146
		v3.849c-0.379-0.088-0.991-0.146-1.487-0.146c-3.032,0-4.082,2.187-4.082,4.84v6.794h-4.14V10.76z"/>
	<path fill="#677A91" d="M157.471,18.924c0,2.77,2.158,3.849,4.607,3.849c1.604,0,4.054-0.467,4.054-2.596
		c0-2.245-3.121-2.624-6.183-3.44c-3.091-0.816-6.21-2.012-6.21-5.918c0-4.257,4.023-6.298,7.784-6.298
		c4.345,0,8.34,1.896,8.34,6.706h-4.432c-0.146-2.507-1.925-3.149-4.111-3.149c-1.458,0-3.149,0.612-3.149,2.362
		c0,1.604,0.991,1.808,6.21,3.149c1.518,0.379,6.183,1.341,6.183,6.064c0,3.82-3.004,6.677-8.66,6.677
		c-4.606,0-8.923-2.273-8.864-7.406H157.471z"/>
	<path fill="#677A91" d="M182.52,16.067c-0.263-1.691-1.341-2.595-3.062-2.595c-2.653,0-3.529,2.682-3.529,4.898
		c0,2.158,0.846,4.753,3.441,4.753c1.925,0,3.032-1.226,3.295-3.062h3.994c-0.523,3.994-3.294,6.181-7.261,6.181
		c-4.547,0-7.609-3.206-7.609-7.727c0-4.694,2.799-8.165,7.697-8.165c3.558,0,6.823,1.866,7.086,5.715H182.52z"/>
	<path fill="#677A91" d="M188.411,5.016h4.141v7.843h0.088c1.049-1.691,2.856-2.507,4.402-2.507c4.402,0,5.511,2.479,5.511,6.21
		v9.272h-4.14V17.32c0-2.479-0.729-3.703-2.654-3.703c-2.245,0-3.207,1.253-3.207,4.315v7.902h-4.141V5.016z"/>
	<path fill="#677A91" d="M212.088,10.352c4.753,0,7.814,3.149,7.814,7.96c0,4.781-3.062,7.931-7.814,7.931
		c-4.724,0-7.785-3.149-7.785-7.931C204.303,13.5,207.365,10.352,212.088,10.352z M212.088,23.124c2.829,0,3.673-2.421,3.673-4.812
		c0-2.42-0.844-4.84-3.673-4.84c-2.8,0-3.645,2.42-3.645,4.84C208.444,20.703,209.289,23.124,212.088,23.124z"/>
	<path fill="#677A91" d="M228.972,10.352c4.753,0,7.814,3.149,7.814,7.96c0,4.781-3.062,7.931-7.814,7.931
		c-4.724,0-7.784-3.149-7.784-7.931C221.188,13.5,224.249,10.352,228.972,10.352z M228.972,23.124c2.828,0,3.674-2.421,3.674-4.812
		c0-2.42-0.846-4.84-3.674-4.84c-2.799,0-3.645,2.42-3.645,4.84C225.328,20.703,226.173,23.124,228.972,23.124z"/>
	<path fill="#677A91" d="M238.654,5.016h4.141v20.818h-4.141V5.016z"/>
</g>
<rect x="47.02" fill="#9095A5" width="1.627" height="29.015"/>
<g>
</g>
<g>
</g>
<g>
</g>
<g>
</g>
<g>
</g>
<g>
</g>
</svg>
