<?xml version="1.0" encoding="utf-8"?>
<!-- Generator: Adobe Illustrator 16.0.3, SVG Export Plug-In . SVG Version: 6.00 Build 0)  -->
<!DOCTYPE svg PUBLIC "-//W3C//DTD SVG 1.1//EN" "http://www.w3.org/Graphics/SVG/1.1/DTD/svg11.dtd">
<svg version="1.1" id="Layer_1" xmlns="http://www.w3.org/2000/svg" xmlns:xlink="http://www.w3.org/1999/xlink" x="0px" y="0px"
	 width="54px" height="54px" viewBox="0 0 54 54" enable-background="new 0 0 54 54" xml:space="preserve">
<g id="Layer_1_1_" display="none">
	
		<linearGradient id="SVGID_1_" gradientUnits="userSpaceOnUse" x1="762.9561" y1="603.7139" x2="774.2961" y2="567.8033" gradientTransform="matrix(1 0 0 1 -740 -558.876)">
		<stop  offset="0" style="stop-color:#D1D3D4"/>
		<stop  offset="0.12" style="stop-color:#DBDDDE"/>
		<stop  offset="0.4104" style="stop-color:#EFF0F0"/>
		<stop  offset="0.7032" style="stop-color:#FBFBFB"/>
		<stop  offset="1" style="stop-color:#FFFFFF"/>
	</linearGradient>
	<path display="inline" fill="url(#SVGID_1_)" d="M50.074,32.166l-23.871-0.021l6.872,6.883c-2.249,1.265-4.839,1.998-7.6,1.996
		c-8.56-0.008-15.519-6.983-15.511-15.544c0.008-8.564,6.98-15.522,15.538-15.514C32.674,9.97,38.7,14.863,40.473,21.481
		l10.166,0.008C48.715,9.327,38.219,0.011,25.509,0C11.436-0.012,0.013,11.391,0,25.47c-0.011,14.078,11.392,25.502,25.466,25.514
		c5.526,0.006,10.627-1.767,14.808-4.75l5.869,5.891l7.049-7.045L47.1,38.966C48.402,36.882,49.411,34.593,50.074,32.166z"/>
	<path display="inline" fill="#FFFFFF" d="M40.239,46.232l5.868,5.891l7.051-7.045l-6.092-6.109
		c1.304-2.088,2.312-4.375,2.975-6.805L26.17,32.143l6.872,6.883"/>
</g>
<g id="Layer_2">
	
		<linearGradient id="SVGID_2_" gradientUnits="userSpaceOnUse" x1="772.2422" y1="564.4023" x2="764.9925" y2="606.1505" gradientTransform="matrix(1 0 0 1 -740 -558.876)">
		<stop  offset="0.165" style="stop-color:#596A89"/>
		<stop  offset="0.3351" style="stop-color:#536380"/>
		<stop  offset="0.665" style="stop-color:#4B5B74"/>
		<stop  offset="1" style="stop-color:#485870"/>
	</linearGradient>
	<path fill="url(#SVGID_2_)" d="M50.479,33.703l-23.872-0.021l6.872,6.883c-2.248,1.264-4.838,1.997-7.6,1.995
		c-8.56-0.008-15.519-6.983-15.511-15.543c0.008-8.564,6.98-15.522,15.538-15.514c7.171,0.006,13.197,4.899,14.971,11.517
		l10.166,0.008c-1.924-12.163-12.42-21.479-25.13-21.49C11.841,1.525,0.418,12.929,0.404,27.008
		C0.393,41.086,11.796,52.51,25.87,52.521c5.526,0.006,10.627-1.767,14.807-4.75l5.869,5.892l7.05-7.045l-6.091-6.113
		C48.807,38.42,49.814,36.131,50.479,33.703z"/>
	<path fill="#596A89" d="M40.643,47.77l5.869,5.891l7.051-7.045l-6.092-6.109c1.303-2.088,2.312-4.375,2.975-6.805L26.574,33.68
		l6.871,6.883"/>
</g>
</svg>
