<?xml version="1.0" encoding="UTF-8"?>
<svg id="Layer_1" xmlns="http://www.w3.org/2000/svg" version="1.1" xmlns:xlink="http://www.w3.org/1999/xlink" viewBox="0 0 192.8 192.8">
  <!-- Generator: Adobe Illustrator 29.8.3, SVG Export Plug-In . SVG Version: 2.1.1 Build 3)  -->
  <defs>
    <style>
      .st0 {
        fill: #fff;
      }

      .st1 {
        fill: url(#linear-gradient1);
      }

      .st2 {
        fill: #02003a;
      }

      .st3 {
        fill: url(#linear-gradient);
      }
    </style>
    <linearGradient id="linear-gradient" x1="272" y1="1151.8" x2="272" y2="1071.9" gradientTransform="translate(-176 -1014.6)" gradientUnits="userSpaceOnUse">
      <stop offset="0" stop-color="#bcbccb"/>
      <stop offset=".7" stop-color="#fbfbfb"/>
      <stop offset="1" stop-color="#fff"/>
    </linearGradient>
    <linearGradient id="linear-gradient1" x1="124" y1="78.5" x2="144.8" y2="78.5" gradientTransform="translate(0 194.6) scale(1 -1)" gradientUnits="userSpaceOnUse">
      <stop offset="0" stop-color="#bdbdcc"/>
      <stop offset=".8" stop-color="#bdbdcc"/>
    </linearGradient>
  </defs>
  <rect class="st2" width="192.8" height="192.8"/>
  <g>
    <g>
      <path class="st3" d="M144.8,109.1h-49.6l14.3,14.2c-4.7,2.6-10,4.1-15.8,4.1-17.8,0-32.2-14.5-32.2-32.3s14.5-32.2,32.3-32.2,27.4,10.2,31.1,23.9h21.1c-4-25.1-25.8-44.5-52.2-44.5s-53,23.7-53,52.9,23.7,53,52.9,53,22.1-3.7,30.7-9.9l12.2,12.2,14.6-14.6-12.6-12.7c2.7-4.3,5.2-8.7,6.2-14.1Z"/>
      <path class="st0" d="M124.4,138.3l12.2,12.2,15.5-13.8-13.6-13.5c2.7-4.3,4.8-9.1,6.2-14.1h-49.6l14.3,14.2"/>
    </g>
    <path class="st1" d="M138.5,123.2l-14.5-14.1h20.8s-1.2,7.2-6.3,14.1Z"/>
  </g>
</svg>